<svg width="261" height="261" viewBox="0 0 261 261" fill="none" xmlns="http://www.w3.org/2000/svg">
<path d="M206.625 32.625C212.393 32.625 217.926 34.9165 222.005 38.9954C226.083 43.0743 228.375 48.6065 228.375 54.375V206.625C228.375 212.393 226.083 217.926 222.005 222.005C217.926 226.083 212.393 228.375 206.625 228.375H54.375C48.6065 228.375 43.0743 226.083 38.9954 222.005C34.9165 217.926 32.625 212.393 32.625 206.625V54.375C32.625 48.6065 34.9165 43.0743 38.9954 38.9954C43.0743 34.9165 48.6065 32.625 54.375 32.625H206.625ZM201.188 201.188V143.55C201.188 134.147 197.452 125.13 190.804 118.481C184.155 111.833 175.138 108.097 165.735 108.097C156.491 108.097 145.725 113.752 140.505 122.235V110.164H110.164V201.188H140.505V147.574C140.505 139.2 147.248 132.349 155.621 132.349C159.659 132.349 163.532 133.953 166.387 136.808C169.242 139.663 170.846 143.536 170.846 147.574V201.188H201.188ZM74.82 93.09C79.6655 93.09 84.3126 91.1651 87.7388 87.7388C91.1651 84.3126 93.09 79.6655 93.09 74.82C93.09 64.7063 84.9338 56.4413 74.82 56.4413C69.9457 56.4413 65.2709 58.3776 61.8243 61.8243C58.3776 65.2709 56.4413 69.9457 56.4413 74.82C56.4413 84.9338 64.7063 93.09 74.82 93.09ZM89.9363 201.188V110.164H59.8125V201.188H89.9363Z" fill="white"/>
</svg>
